<svg width="20" height="30" viewBox="0 0 20 30" fill="none" xmlns="http://www.w3.org/2000/svg">
    <path
        d="M4 5.5C4 8.53757 6.46243 11 9.5 11H10.5C13.5376 11 16 8.53757 16 5.5V2C16 0.895431 16.8954 0 18 0C19.1046 0 20 0.895431 20 2V28C20 29.1046 19.1046 30 18 30C16.8954 30 16 29.1046 16 28V24.5C16 21.4624 13.5376 19 10.5 19H9.5C6.46243 19 4 21.4624 4 24.5V28C4 29.1046 3.10457 30 2 30C0.895431 30 0 29.1046 0 28V2C0 0.89543 0.895431 0 2 0C3.10457 0 4 0.895431 4 2V5.5Z"
        fill="#e0eed5" />
</svg>