<?xml version="1.0" encoding="UTF-8" standalone="no"?>
<!-- Created with Inkscape (http://www.inkscape.org/) -->

<svg
   width="110mm"
   height="110mm"
   viewBox="0 0 110 110"
   version="1.1"
   id="svg5"
   inkscape:version="1.1.2 (0a00cf5339, 2022-02-04)"
   sodipodi:docname="magic_hat.svg"
   xmlns:inkscape="http://www.inkscape.org/namespaces/inkscape"
   xmlns:sodipodi="http://sodipodi.sourceforge.net/DTD/sodipodi-0.dtd"
   xmlns="http://www.w3.org/2000/svg"
   xmlns:svg="http://www.w3.org/2000/svg">
  <sodipodi:namedview
     id="namedview7"
     pagecolor="#ffffff"
     bordercolor="#111111"
     borderopacity="1"
     inkscape:pageshadow="0"
     inkscape:pageopacity="0"
     inkscape:pagecheckerboard="1"
     inkscape:document-units="mm"
     showgrid="false"
     inkscape:zoom="0.99528652"
     inkscape:cx="292.88049"
     inkscape:cy="199.44006"
     inkscape:window-width="1920"
     inkscape:window-height="968"
     inkscape:window-x="0"
     inkscape:window-y="27"
     inkscape:window-maximized="1"
     inkscape:current-layer="layer1" />
  <defs
     id="defs2" />
  <g
     inkscape:label="Layer 1"
     inkscape:groupmode="layer"
     id="layer1">
    <path
       style="fill:#000000;stroke-width:0.249761"
       d="m 99.536672,106.89866 c 2.667318,-1.04858 4.237398,-3.436 3.935258,-5.98387 -0.0824,-0.6948 -5.271552,-12.103803 -15.023433,-33.030858 -13.895533,-29.819109 -14.973199,-32.0397 -16.022016,-33.014295 -1.565392,-1.454604 -3.212937,-1.827695 -5.246476,-1.18807 -2.94467,0.926214 -4.691239,3.005242 -4.691239,5.58423 0,1.321033 0.798464,3.107127 15.057461,33.682564 13.50887,28.966959 15.156898,32.372699 16.024443,33.115279 1.729351,1.48025 3.64325,1.74814 5.966002,0.83502 z M 68.909479,48.391584 C 64.950172,39.89781 64.71851,39.191185 65.437467,37.800896 c 0.811029,-1.56836 3.99508,-2.298325 5.232306,-1.199541 0.387287,0.343948 2.139614,3.800503 4.516865,8.909743 3.88909,8.358529 4.017556,8.74422 2.91665,8.75703 -0.438252,0.0047 -3.78563,1.58782 -4.416897,2.088403 -0.274736,0.21787 -0.598634,0.366887 -0.719775,0.331157 -0.12115,-0.03578 -1.946863,-3.768978 -4.057137,-8.296104 z M 51.890174,107.21161 c 9.758526,-1.02354 17.222808,-4.42664 19.507379,-8.893749 0.827888,-1.618802 0.945735,-2.972565 0.668705,-7.681813 -0.288385,-4.902301 -0.995171,-13.462143 -1.122051,-13.589023 -0.04323,-0.04324 -1.017402,0.204126 -2.164846,0.549631 -6.935484,2.088366 -13.422953,2.977773 -21.817411,2.991083 -8.013914,0.01274 -14.991399,-0.890304 -21.327552,-2.760157 -1.182497,-0.348961 -2.331143,-0.686924 -2.552544,-0.75102 -0.326108,-0.09441 -0.432451,0.159985 -0.560029,1.339685 -0.437485,4.045348 -0.960487,11.828541 -0.995748,14.818444 -0.03569,3.026768 0.01824,3.49753 0.526973,4.600693 2.041024,4.425726 7.86656,7.505366 17.041424,9.008846 2.913004,0.47735 9.848759,0.67648 12.7957,0.36738 z M 54.205028,73.738179 C 60.774632,73.071192 71.353771,70.357356 70.98982,69.432436 70.641086,68.546209 64.710307,55.864208 64.565369,55.69483 64.470969,55.584516 63.281406,55.824617 61.921878,56.228395 50.31059,59.676911 32.512401,58.389796 26.03524,53.63316 20.497953,49.566734 25.908314,44.704628 37.962202,42.914796 c 5.6279,-0.835657 13.474171,-0.747754 19.061944,0.213566 1.573594,0.270714 1.801301,0.264173 1.681387,-0.04833 -0.879921,-2.293038 -0.804204,-5.693344 0.174372,-7.830833 l 0.643086,-1.404678 -1.784819,-0.265005 c -12.998726,-1.930009 -27.453748,-0.16937 -37.500665,4.567622 -3.838182,1.809654 -6.150704,3.384268 -8.618769,5.868585 -5.9095938,5.948494 -6.0022,12.550873 -0.260581,18.578001 4.982691,5.230466 13.664012,9.011272 24.561048,10.696605 3.774023,0.583682 14.387424,0.843606 18.285823,0.447824 z M 24.819397,30.846598 c 0.734128,-0.990285 1.433729,-1.800517 1.554666,-1.800517 0.120937,0 1.036187,0.497749 2.033888,1.106112 0.9977,0.608361 1.839156,1.080956 1.869901,1.050213 0.03074,-0.03074 -0.214702,-1.039444 -0.545436,-2.241556 l -0.601334,-2.185655 0.548435,-0.233629 c 0.301639,-0.128495 1.278987,-0.503999 2.171883,-0.834452 l 1.623448,-0.600823 -2.06053,-0.93816 c -1.133291,-0.515989 -2.060529,-1.083941 -2.060529,-1.262116 0,-0.178174 0.280981,-1.1029 0.624402,-2.054945 0.343422,-0.952044 0.624403,-1.80294 0.624403,-1.890881 0,-0.08794 -0.896644,0.290934 -1.992545,0.841942 -1.095899,0.551008 -2.039603,1.001832 -2.097118,1.001832 -0.05752,0 -0.634084,-0.849565 -1.281263,-1.887922 -0.647181,-1.038357 -1.220954,-1.843659 -1.275053,-1.789558 -0.0541,0.0541 -0.279015,1.072254 -0.499814,2.262563 l -0.401449,2.1642 -0.78452,-0.02108 c -0.431484,-0.01159 -1.458875,-0.108165 -2.283086,-0.21461 -0.824212,-0.106444 -1.52978,-0.168775 -1.567926,-0.138514 -0.03815,0.03026 0.461404,0.6607 1.110117,1.400977 0.648711,0.740275 1.339678,1.538309 1.535485,1.773412 0.319692,0.383853 0.19604,0.594047 -1.212145,2.060529 l -1.568155,1.633071 h 2.27612 2.276121 l 0.133887,0.811724 c 0.07364,0.446448 0.219271,1.481466 0.323628,2.30004 l 0.189741,1.488317 1.334778,-1.800518 z m 47.061275,-1.788566 0.9234,-1.236855 1.393757,0.638082 c 0.766568,0.350947 1.446658,0.585188 1.511311,0.520535 0.06466,-0.06465 0.0038,-0.610051 -0.134763,-1.211996 -0.404259,-1.753488 -0.353237,-1.889158 0.984269,-2.617122 0.686848,-0.373825 1.248808,-0.750802 1.248808,-0.837722 0,-0.08692 -0.629284,-0.466665 -1.398401,-0.843877 -1.193435,-0.585316 -1.378228,-0.76683 -1.26075,-1.238396 0.07571,-0.303904 0.215133,-1.039871 0.309823,-1.635478 l 0.172173,-1.082924 -1.509168,0.761828 -1.509177,0.761827 -1.110932,-1.293406 -1.110921,-1.293405 -0.33332,1.676941 -0.333328,1.676943 h -1.577625 c -0.867696,0 -1.577625,0.09394 -1.577625,0.208774 0,0.114824 0.408884,0.73359 0.908627,1.375037 l 0.908627,1.166262 -0.918218,1.309898 -0.918227,1.309894 1.635179,0.0739 1.63518,0.0739 0.413453,1.487108 c 0.227405,0.817907 0.483431,1.487105 0.568955,1.487105 0.08552,0 0.571032,-0.556586 1.078893,-1.236855 z M 52.94086,20.170519 c 0.234182,-0.819239 0.567048,-1.985192 0.739712,-2.591008 0.307133,-1.077608 0.364158,-1.123672 2.631143,-2.125357 1.274457,-0.563132 2.312192,-1.117293 2.306085,-1.231471 -0.0057,-0.114177 -0.945292,-0.843653 -2.087063,-1.621059 L 54.454786,11.188158 54.205028,8.4831898 53.95526,5.7782222 51.855058,7.421705 c -1.155116,0.9039167 -2.246592,1.6434838 -2.4255,1.6434838 -0.178912,0 -1.289335,-0.2247851 -2.467608,-0.4995226 -1.178274,-0.2747367 -2.245188,-0.4995217 -2.370925,-0.4995217 -0.125735,0 0.174645,1.1520227 0.667514,2.5600515 l 0.896128,2.560052 -1.282246,2.160737 c -0.705235,1.188405 -1.282246,2.245012 -1.282246,2.348018 0,0.103007 1.152023,0.113105 2.560051,0.02243 l 2.560052,-0.164845 1.902403,2.053724 1.902397,2.053726 0.425782,-1.489528 z M 32.671798,11.322907 c 1.386967,-0.881074 1.456191,-0.889244 3.019945,-0.356419 0.650073,0.221502 1.248399,0.336285 1.329611,0.255073 0.08121,-0.08121 -0.03219,-0.779882 -0.252011,-1.5525984 L 36.369672,8.2640223 37.3442,6.9448521 38.318731,5.6256808 37.551457,5.4722266 C 37.129456,5.3878255 36.376761,5.3185544 35.878799,5.3182891 35.072587,5.3178643 34.880219,5.1810685 34.122602,4.0694831 33.654654,3.3829053 33.192046,2.8211602 33.094581,2.8211602 c -0.09746,0 -0.416544,0.6564073 -0.709067,1.458682 -0.529658,1.4526367 -0.538078,1.4605642 -2.031555,1.9127529 -0.824831,0.2497382 -1.499638,0.5205695 -1.49957,0.6018471 6.7e-5,0.081277 0.55671,0.6270976 1.236985,1.2129349 1.200631,1.0339602 1.239035,1.1092321 1.311121,2.5699199 l 0.07426,1.504762 z"
       id="path836" />
  </g>
</svg>
