<svg xmlns="http://www.w3.org/2000/svg" width="28" height="28" viewBox="0 0 28 28" fill="currentColor">
  <path d="M20.1277 20.2533C20.34 21.4183 21.1751 22.0703 22.414 22.0413C24.0285 22.0043 24.4509 20.0033 23.494 19.5223C22.9148 19.2313 22.2518 19.1323 22.1843 17.5443C22.0732 14.9234 22.6481 13.0544 22.6807 12.5654C22.7232 11.9434 22.7667 11.3045 22.6676 10.6935C22.4804 9.53349 21.7608 8.73151 20.5915 8.32852C19.6814 8.01452 18.7473 7.96052 17.8099 8.18952C16.7669 8.44451 16.1159 9.2375 16.1268 10.3345C16.1333 10.9655 16.2487 11.6035 16.3881 12.2244C16.6102 13.2144 16.4392 14.1044 15.8034 14.9134C15.5574 15.2264 15.2765 15.5034 14.8737 15.6314C14.3631 15.7944 13.834 15.5974 13.6391 15.1204C13.5281 14.8484 13.3615 14.1884 13.5259 13.0384C13.9146 10.3075 13.5401 9.85249 13.5923 8.41252C13.6054 8.05552 13.76 7.63953 13.6914 7.02954C13.5749 5.99156 13.0893 5.39257 12.1509 4.84558C11.2734 4.33359 10.3154 4.0206 9.27892 4.0006C7.88213 3.9736 7.10916 4.86258 7.39548 6.17056C7.5 6.65155 7.66439 7.12154 7.8081 7.59553C8.08571 8.51651 7.76999 9.2425 7.22347 10.0475C5.0929 13.1864 3.16047 18.0743 4.37763 21.5483C4.87081 22.9582 5.73523 23.9322 7.30948 23.9982C8.16192 24.0342 9.42698 23.5332 9.78298 21.6983C9.98984 20.6303 9.38017 19.3333 8.86413 18.5383C8.73566 18.3413 8.61264 18.1413 8.4918 17.9403C6.9611 15.3744 8.80643 11.2235 9.70895 10.5355C10.385 10.0205 11.2113 10.3105 11.3986 11.1135C11.4792 11.4615 11.4509 11.8424 11.416 12.2034C11.3779 12.5864 10.9925 15.1464 11.3463 18.3133C11.5663 20.2823 12.41 22.1753 13.8928 22.8222C14.7801 23.2102 15.7773 23.2822 16.7593 23.0582C17.639 22.8582 18.1822 22.2163 18.2182 21.3543C18.2476 20.6563 17.9732 20.0303 17.7326 19.3933C17.5399 18.8853 17.3069 18.3833 17.1937 17.8583C16.9749 16.8334 17.3821 15.9884 18.2182 15.3504C18.8866 14.8394 19.7195 15.1034 19.8817 15.9034C19.9993 16.4824 19.9742 19.4103 20.1288 20.2533H20.1277Z" />
</svg>
