<svg width="40" height="40" viewBox="0 0 40 40" fill="none" xmlns="http://www.w3.org/2000/svg">
<path fill-rule="evenodd" clip-rule="evenodd" d="M30.5891 15.8062C31.0571 16.2496 31.0771 16.9884 30.6337 17.4564C30.0922 18.0281 29.4977 18.969 29.3592 20.1314C29.2258 21.2507 29.4967 22.7173 30.919 24.4359C32.6882 26.5735 33.2546 28.6319 33.1379 30.3919C33.0237 32.1145 32.2601 33.458 31.516 34.2076C31.0618 34.6651 30.3227 34.6678 29.8652 34.2136C29.4077 33.7594 29.405 33.0203 29.8592 32.5628C30.2281 32.1911 30.7334 31.3688 30.8084 30.2375C30.8809 29.1435 30.5569 27.66 29.1205 25.9245C27.3373 23.7699 26.8236 21.6782 27.041 19.8551C27.2532 18.075 28.1448 16.6891 28.9389 15.8509C29.3822 15.3828 30.1211 15.3628 30.5891 15.8062Z" fill="url(#paint0_linear_556_87)"/>
<path fill-rule="evenodd" clip-rule="evenodd" d="M30.1804 21.3522C30.371 21.0868 30.7774 21.1271 30.9121 21.4248V21.4248C31.0646 21.7615 31.1681 22.0807 31.1442 22.4123C31.1196 22.7531 30.9661 23.0392 30.7543 23.3222V23.3222C30.5734 23.5638 30.2053 23.5448 30.0501 23.2859V23.2859C29.8481 22.9487 29.7267 22.6225 29.7647 22.2672C29.8011 21.9268 29.9782 21.6337 30.1804 21.3522V21.3522Z" fill="url(#paint1_linear_556_87)"/>
<path fill-rule="evenodd" clip-rule="evenodd" d="M26.8608 25.7053C26.6256 25.4128 26.7951 24.9754 27.166 24.9178V24.9178C27.5855 24.8525 27.9706 24.836 28.3303 24.9644C28.6999 25.0963 28.9695 25.3541 29.2175 25.6755V25.6755C29.4294 25.9499 29.2953 26.3515 28.9611 26.4437V26.4437C28.5258 26.5637 28.1274 26.5978 27.7459 26.4466C27.3802 26.3017 27.1103 26.0157 26.8608 25.7053V25.7053Z" fill="url(#paint2_linear_556_87)"/>
<path fill-rule="evenodd" clip-rule="evenodd" d="M25.2855 21.8028C25.136 21.4585 25.4151 21.0815 25.788 21.1239V21.1239C26.2098 21.1719 26.5856 21.2578 26.8986 21.4767C27.2201 21.7017 27.412 22.0215 27.5662 22.3971V22.3971C27.698 22.7177 27.4625 23.0696 27.1158 23.0702V23.0702C26.6643 23.0708 26.2711 22.9984 25.9431 22.7517C25.6287 22.5153 25.444 22.1681 25.2855 21.8028V21.8028Z" fill="url(#paint3_linear_556_87)"/>
<path fill-rule="evenodd" clip-rule="evenodd" d="M26.3336 17.0004C26.495 16.6616 26.9626 16.6243 27.1756 16.9333V16.9333C27.4165 17.2829 27.5986 17.6226 27.6391 18.0025C27.6808 18.3927 27.5656 18.7474 27.3838 19.1104V19.1104C27.2286 19.4204 26.8085 19.474 26.5804 19.213V19.213C26.2833 18.873 26.0796 18.5289 26.0501 18.1196C26.0219 17.7272 26.1624 17.3599 26.3336 17.0004V17.0004Z" fill="url(#paint4_linear_556_87)"/>
<path fill-rule="evenodd" clip-rule="evenodd" d="M25.3065 3.6873C24.7048 3.91881 24.4047 4.59425 24.6362 5.19594C24.8456 5.7402 24.9353 6.4194 24.7194 6.987C24.5332 7.47621 24.021 8.14178 22.4513 8.52502C20.6103 8.97453 19.2974 9.45877 18.523 10.1221C18.096 10.4878 17.7779 10.9532 17.6763 11.5285C17.579 12.0796 17.7082 12.5797 17.8701 12.9733C18.1153 13.5695 18.7974 13.8541 19.3936 13.6089C19.9899 13.3637 20.2744 12.6815 20.0292 12.0853C20.003 12.0215 19.99 11.9776 19.9836 11.9502C19.9962 11.9366 20.0148 11.9182 20.0417 11.8953C20.3507 11.6306 21.1591 11.2438 23.0051 10.793C25.1225 10.276 26.3767 9.19621 26.9014 7.81722C27.3962 6.5166 27.1411 5.20479 26.8151 4.35757C26.5836 3.75588 25.9082 3.45579 25.3065 3.6873ZM19.96 11.9803C19.9601 11.9803 19.9612 11.9786 19.9629 11.9753C19.9606 11.9786 19.9598 11.9803 19.96 11.9803ZM19.9775 11.9141C19.9775 11.9138 19.9775 11.9136 19.9775 11.9136C19.9775 11.9136 19.9775 11.9138 19.9775 11.9141Z" fill="url(#paint5_linear_556_87)"/>
<path fill-rule="evenodd" clip-rule="evenodd" d="M32.7753 6.03312C33.1823 6.53318 33.1067 7.26841 32.6067 7.67532C32.0943 8.09223 31.4971 8.85972 31.3302 9.74406C31.1816 10.5321 31.3353 11.6028 32.6655 12.8418C34.441 14.4954 35.1 16.1784 34.9678 17.7162C34.8403 19.1977 33.9966 20.3007 33.2473 20.8826C32.7381 21.2779 32.0048 21.1857 31.6094 20.6765C31.214 20.1673 31.3063 19.4339 31.8155 19.0385C32.1686 18.7643 32.5817 18.2136 32.6417 17.5162C32.6969 16.875 32.4739 15.8537 31.0743 14.5502C29.2295 12.8319 28.7217 10.9778 29.0361 9.31129C29.3323 7.74103 30.3225 6.52408 31.1332 5.86446C31.6332 5.45756 32.3684 5.53307 32.7753 6.03312Z" fill="url(#paint6_linear_556_87)"/>
<path fill-rule="evenodd" clip-rule="evenodd" d="M19.8831 37.5872C22.8384 37.5872 25.2139 35.2068 25.2139 32.2954C25.2139 29.384 22.8384 27.0036 19.8831 27.0036C16.9278 27.0036 14.5524 29.384 14.5524 32.2954C14.5524 35.2068 16.9278 37.5872 19.8831 37.5872ZM19.8831 39.9219C24.1166 39.9219 27.5485 36.5074 27.5485 32.2954C27.5485 28.0834 24.1166 24.6689 19.8831 24.6689C15.6497 24.6689 12.2178 28.0834 12.2178 32.2954C12.2178 36.5074 15.6497 39.9219 19.8831 39.9219Z" fill="url(#paint7_linear_556_87)"/>
<path fill-rule="evenodd" clip-rule="evenodd" d="M20.6921 2.62448C20.3653 2.48079 20.0054 2.74461 20.0441 3.09951V3.09951C20.0879 3.50101 20.1679 3.85879 20.3748 4.15749C20.5874 4.46436 20.8908 4.64822 21.2474 4.79663V4.79663C21.5518 4.92337 21.8876 4.70091 21.8896 4.37112V4.37112C21.8922 3.94162 21.8251 3.56726 21.5918 3.25418C21.3683 2.95414 21.0388 2.77694 20.6921 2.62448V2.62448Z" fill="url(#paint8_linear_556_87)"/>
<path fill-rule="evenodd" clip-rule="evenodd" d="M8.20024 6.11125C7.79333 6.6113 7.86884 7.34654 8.3689 7.75344C8.88124 8.17035 9.47853 8.93784 9.64535 9.82218C9.79401 10.6103 9.6403 11.6809 8.31008 12.9199C6.53456 14.5736 5.87554 16.2565 6.00782 17.7944C6.13525 19.2759 6.97897 20.3789 7.72827 20.9607C8.23748 21.3561 8.9708 21.2638 9.36619 20.7546C9.76158 20.2454 9.66931 19.5121 9.1601 19.1167C8.80694 18.8425 8.39385 18.2918 8.33386 17.5943C8.27871 16.9532 8.50167 15.9318 9.90125 14.6283C11.7461 12.91 12.2539 11.0559 11.9395 9.38941C11.6433 7.81915 10.653 6.6022 9.84243 5.94259C9.34238 5.53568 8.60714 5.61119 8.20024 6.11125Z" fill="url(#paint9_linear_556_87)"/>
<path fill-rule="evenodd" clip-rule="evenodd" d="M19.3753 2.21288C18.954 1.84627 18.2938 2.07296 18.1865 2.62106V2.62106C18.0652 3.24113 18.0183 3.81273 18.1884 4.35509C18.3632 4.91229 18.731 5.32804 19.1944 5.71551V5.71551C19.5903 6.04641 20.1953 5.87029 20.3516 5.37864V5.37864C20.5553 4.73835 20.6291 4.14796 20.4263 3.57186C20.232 3.01976 19.8223 2.60186 19.3753 2.21288V2.21288Z" fill="url(#paint10_linear_556_87)"/>
<path fill-rule="evenodd" clip-rule="evenodd" d="M9.39482 21.5673C8.89104 21.9696 8.80875 22.7041 9.21103 23.2079C9.47015 23.5324 9.7424 24.0582 9.76836 24.676C9.79259 25.2528 9.60952 26.042 8.73714 26.9681C7.49349 28.2883 7.00419 29.6432 6.99276 30.8603C6.98167 32.041 7.42218 33.0099 7.90593 33.5875C8.31988 34.0817 9.05612 34.1468 9.55035 33.7328C10.0446 33.3189 10.1097 32.5827 9.69571 32.0884C9.55358 31.9187 9.32163 31.484 9.32728 30.8823C9.33259 30.317 9.54923 29.5108 10.4365 28.5689C11.6951 27.2329 12.1542 25.8461 12.1009 24.578C12.0494 23.351 11.5243 22.3634 11.0354 21.7511C10.6331 21.2473 9.89861 21.165 9.39482 21.5673Z" fill="url(#paint11_linear_556_87)"/>
<path fill-rule="evenodd" clip-rule="evenodd" d="M7.54331 25.1234C7.70033 24.7061 8.25016 24.615 8.53333 24.9595V24.9595C8.85368 25.3491 9.10337 25.733 9.18949 26.1786C9.27796 26.6364 9.17723 27.0679 8.99848 27.5159V27.5159C8.84583 27.8985 8.35396 28.0042 8.05767 27.718V27.718C7.67179 27.3453 7.39607 26.9585 7.32011 26.4768C7.24731 26.0152 7.3767 25.5662 7.54331 25.1234V25.1234Z" fill="url(#paint12_linear_556_87)"/>
<path fill-rule="evenodd" clip-rule="evenodd" d="M12.2253 25.935C11.8008 26.0716 11.3876 25.6977 11.4812 25.2617V25.2617C11.5872 24.7685 11.7325 24.3343 12.0279 23.9897C12.3313 23.6357 12.7319 23.4462 13.1939 23.3076V23.3076C13.5885 23.1892 13.9771 23.5087 13.9372 23.9187V23.9187C13.8854 24.4526 13.7539 24.9091 13.424 25.2682C13.1077 25.6122 12.6757 25.7901 12.2253 25.935V25.935Z" fill="url(#paint13_linear_556_87)"/>
<path fill-rule="evenodd" clip-rule="evenodd" d="M12.3869 23.2026C12.1675 23.431 11.7831 23.3365 11.6947 23.0324V23.0324C11.5947 22.6883 11.5392 22.3678 11.6078 22.0528C11.6782 21.7292 11.8648 21.4757 12.1069 21.2333V21.2333C12.3137 21.0263 12.6644 21.0951 12.7777 21.3649V21.3649C12.9252 21.7162 12.9968 22.0459 12.9115 22.3816C12.8298 22.7033 12.6196 22.9602 12.3869 23.2026V23.2026Z" fill="url(#paint14_linear_556_87)"/>
<path fill-rule="evenodd" clip-rule="evenodd" d="M20 36.1089C28.8967 36.1089 36.1089 28.8967 36.1089 20C36.1089 11.1033 28.8967 3.89105 20 3.89105C11.1033 3.89105 3.89105 11.1033 3.89105 20C3.89105 28.8967 11.1033 36.1089 20 36.1089ZM20 40C31.0457 40 40 31.0457 40 20C40 8.9543 31.0457 0 20 0C8.9543 0 0 8.9543 0 20C0 31.0457 8.9543 40 20 40Z" fill="url(#paint15_linear_556_87)"/>
<path fill-rule="evenodd" clip-rule="evenodd" d="M19.9223 21.2453C20.7819 21.2453 21.4787 20.5485 21.4787 19.6889C21.4787 18.8293 20.7819 18.1325 19.9223 18.1325C19.0627 18.1325 18.3659 18.8293 18.3659 19.6889C18.3659 20.5485 19.0627 21.2453 19.9223 21.2453ZM19.9223 23.58C22.0713 23.58 23.8134 21.8379 23.8134 19.6889C23.8134 17.5399 22.0713 15.7979 19.9223 15.7979C17.7733 15.7979 16.0312 17.5399 16.0312 19.6889C16.0312 21.8379 17.7733 23.58 19.9223 23.58Z" fill="url(#paint16_linear_556_87)"/>
<path fill-rule="evenodd" clip-rule="evenodd" d="M18.2925 3.43542C18.0265 2.89889 17.2796 2.85118 16.9476 3.3495L16.7897 3.58648C16.3346 4.26943 15.993 4.93142 15.9262 5.66671C15.8575 6.42213 16.0909 7.10427 16.4532 7.8003L16.5664 8.01772C16.8218 8.50839 17.4932 8.58342 17.8506 8.16122L18.009 7.97415C18.5729 7.30805 18.9562 6.63697 19.0007 5.84491C19.0433 5.08586 18.7607 4.3802 18.4189 3.69057L18.2925 3.43542Z" fill="url(#paint17_linear_556_87)"/>
<path fill-rule="evenodd" clip-rule="evenodd" d="M10.3638 13.261C10.7021 12.7669 11.4484 12.8242 11.7074 13.364L11.8453 13.6513C12.2077 14.4065 12.4585 15.1244 12.421 15.8771C12.3825 16.6504 12.0492 17.3065 11.5837 17.9582L11.4243 18.1814C11.1027 18.6315 10.4274 18.6119 10.1326 18.1438L9.9864 17.9118C9.51158 17.1581 9.22002 16.4251 9.28814 15.6182C9.35343 14.8449 9.7398 14.172 10.1837 13.5238L10.3638 13.261Z" fill="url(#paint18_linear_556_87)"/>
<path fill-rule="evenodd" clip-rule="evenodd" d="M11.5085 11.4348C11.4448 10.8393 12.0493 10.398 12.597 10.6401L12.6351 10.657C13.274 10.9394 13.8218 11.2586 14.2057 11.756C14.6002 12.267 14.7444 12.8633 14.8024 13.5287L14.8055 13.5645C14.8535 14.1155 14.3274 14.5394 13.7991 14.3751L13.7648 14.3644C13.0556 14.1439 12.4737 13.8372 12.0798 13.2889C11.7023 12.7634 11.5827 12.1276 11.513 11.4763L11.5085 11.4348Z" fill="url(#paint19_linear_556_87)"/>
<path fill-rule="evenodd" clip-rule="evenodd" d="M11.2941 7.9398C11.0246 7.40501 11.4349 6.77905 12.0328 6.81269L12.0745 6.81504C12.7718 6.85427 13.3969 6.96 13.9315 7.29022C14.4807 7.62949 14.8258 8.13686 15.1144 8.7391L15.1299 8.77151C15.369 9.27036 15.0259 9.85235 14.4737 9.88471L14.4378 9.88681C13.6963 9.93026 13.0437 9.84824 12.4819 9.47382C11.9435 9.115 11.6076 8.56211 11.3129 7.9771L11.2941 7.9398Z" fill="url(#paint20_linear_556_87)"/>
<path fill-rule="evenodd" clip-rule="evenodd" d="M20.2253 8.65286C19.904 8.39139 19.9861 7.88024 20.3731 7.73248V7.73248C20.8108 7.56532 21.2226 7.45867 21.6405 7.51432C22.0698 7.57148 22.4202 7.78757 22.762 8.07721V8.07721C23.054 8.32457 23.0019 8.78897 22.6624 8.9655V8.9655C22.2202 9.19539 21.7982 9.32408 21.3515 9.24884C20.9234 9.17674 20.5662 8.93028 20.2253 8.65286V8.65286Z" fill="url(#paint21_linear_556_87)"/>
<path fill-rule="evenodd" clip-rule="evenodd" d="M25.0382 6.49316C25.2963 6.65051 25.2874 7.02826 25.0222 7.17333V7.17333C24.7221 7.33745 24.4349 7.45525 24.1272 7.45629C23.8111 7.45735 23.5364 7.3357 23.2606 7.16V7.16C23.025 7.00996 23.0168 6.66898 23.2449 6.50779V6.50779C23.5419 6.29787 23.8344 6.16311 24.1649 6.1734C24.4816 6.18326 24.7643 6.3262 25.0382 6.49316V6.49316Z" fill="url(#paint22_linear_556_87)"/>
<path fill-rule="evenodd" clip-rule="evenodd" d="M22.0566 13.3523C21.7666 13.691 21.2187 13.589 21.07 13.1686V13.1686C20.9019 12.693 20.7981 12.247 20.8692 11.7988C20.9422 11.3383 21.1841 10.967 21.505 10.6069V10.6069C21.779 10.2993 22.2774 10.3678 22.4583 10.7379V10.7379C22.6939 11.2198 22.8211 11.6775 22.7282 12.1562C22.6391 12.615 22.3643 12.9929 22.0566 13.3523V13.3523Z" fill="url(#paint23_linear_556_87)"/>
<path fill-rule="evenodd" clip-rule="evenodd" d="M16.2642 12.0041C15.8835 11.772 15.8965 11.2149 16.2877 11.0009V11.0009C16.7303 10.7588 17.154 10.5851 17.6078 10.5835C18.0741 10.582 18.4793 10.7614 18.8861 11.0206V11.0206C19.2335 11.2419 19.2456 11.7448 18.9092 11.9825V11.9825C18.4711 12.2922 18.0397 12.4909 17.5523 12.4758C17.0852 12.4612 16.6682 12.2504 16.2642 12.0041V12.0041Z" fill="url(#paint24_linear_556_87)"/>
<path fill-rule="evenodd" clip-rule="evenodd" d="M35.2297 20.219C35.1285 20.4525 34.8126 20.4889 34.6609 20.2847V20.2847C34.4893 20.0536 34.3577 19.8279 34.3211 19.5715C34.2836 19.3082 34.3531 19.0651 34.4675 18.8148V18.8148C34.5652 18.601 34.8485 18.5546 35.0093 18.726V18.726C35.2188 18.9492 35.3651 19.1774 35.3948 19.454C35.4234 19.7191 35.3371 19.9713 35.2297 20.219V20.219Z" fill="url(#paint25_linear_556_87)"/>
<path fill-rule="evenodd" clip-rule="evenodd" d="M33.9012 21.9356C33.729 22.123 33.4187 22.0539 33.3423 21.8112V21.8112C33.2559 21.5366 33.2056 21.2802 33.2551 21.026C33.306 20.7649 33.4513 20.558 33.6415 20.3591V20.3591C33.8039 20.1892 34.0867 20.2382 34.1825 20.4528V20.4528C34.3072 20.7324 34.3706 20.9959 34.308 21.267C34.2481 21.5268 34.0838 21.7368 33.9012 21.9356V21.9356Z" fill="url(#paint26_linear_556_87)"/>
<path fill-rule="evenodd" clip-rule="evenodd" d="M28.9935 12.5507C29.2 12.3607 29.5314 12.4243 29.6529 12.6772V12.6772C29.7757 12.9331 29.8548 13.1716 29.817 13.4069C29.7781 13.6486 29.6243 13.8389 29.4174 14.0212V14.0212C29.2226 14.193 28.9206 14.151 28.78 13.9327L28.7768 13.9277C28.6087 13.6668 28.5137 13.4215 28.5655 13.1706C28.6151 12.9302 28.7908 12.7373 28.9888 12.555L28.9935 12.5507Z" fill="url(#paint27_linear_556_87)"/>
<path fill-rule="evenodd" clip-rule="evenodd" d="M28.476 9.88797C28.7442 9.80525 29.016 10.0052 29.0168 10.2859V10.2859C29.0176 10.5697 28.9863 10.819 28.851 11.0152C28.7119 11.2167 28.4912 11.3222 28.226 11.3978V11.3978C27.9763 11.469 27.7217 11.3012 27.6887 11.0436L27.6879 11.0378C27.6485 10.7299 27.6682 10.4676 27.8229 10.2634C27.9711 10.0678 28.2127 9.96919 28.4699 9.88985L28.476 9.88797Z" fill="url(#paint28_linear_556_87)"/>
<path fill-rule="evenodd" clip-rule="evenodd" d="M29.3475 7.20817C29.6275 7.22779 29.8088 7.51239 29.7083 7.7744V7.7744C29.6066 8.03937 29.4875 8.26066 29.2905 8.39472C29.0881 8.53244 28.8441 8.55126 28.5695 8.52607V8.52607C28.3109 8.50235 28.1341 8.25399 28.1962 8.00184L28.1976 7.9961C28.2719 7.69476 28.385 7.45721 28.603 7.32262C28.8118 7.19364 29.0727 7.1889 29.3412 7.20772L29.3475 7.20817Z" fill="url(#paint29_linear_556_87)"/>
<path fill-rule="evenodd" clip-rule="evenodd" d="M5.85774 20.4964C5.62225 20.6823 5.27377 20.5438 5.23026 20.2469V20.2469C5.18105 19.911 5.17053 19.6031 5.27571 19.3164C5.38378 19.0218 5.59177 18.8081 5.85043 18.6121V18.6121C6.07132 18.4446 6.39148 18.5547 6.4628 18.8225V18.8225C6.55568 19.1713 6.58017 19.4901 6.45659 19.794C6.33816 20.0853 6.1076 20.2991 5.85774 20.4964V20.4964Z" fill="url(#paint30_linear_556_87)"/>
<path fill-rule="evenodd" clip-rule="evenodd" d="M7.53064 22.0848C7.36683 22.3362 6.99235 22.3161 6.85635 22.0486V22.0486C6.7025 21.746 6.59422 21.4576 6.60239 21.1523C6.61078 20.8387 6.73968 20.5697 6.92222 20.3014V20.3014C7.07811 20.0722 7.41663 20.0742 7.56972 20.3053V20.3053C7.76909 20.6062 7.89404 20.9005 7.87395 21.228C7.85471 21.5419 7.70445 21.818 7.53064 22.0848V22.0848Z" fill="url(#paint31_linear_556_87)"/>
<defs>
<linearGradient id="paint0_linear_556_87" x1="29.6037" y1="20.8987" x2="29.6037" y2="32.6825" gradientUnits="userSpaceOnUse">
<stop stop-color="#CBFF00"/>
<stop offset="0.625" stop-color="#68D73B"/>
<stop offset="1" stop-color="#2CA5BF"/>
</linearGradient>
<linearGradient id="paint1_linear_556_87" x1="30.4056" y1="22.0001" x2="30.3299" y2="23.0013" gradientUnits="userSpaceOnUse">
<stop stop-color="#CBFF00"/>
<stop offset="1" stop-color="#71DB36"/>
</linearGradient>
<linearGradient id="paint2_linear_556_87" x1="27.6471" y1="25.6551" x2="28.732" y2="26.0465" gradientUnits="userSpaceOnUse">
<stop stop-color="#CBFF00"/>
<stop offset="1" stop-color="#88E428"/>
</linearGradient>
<linearGradient id="paint3_linear_556_87" x1="26.0571" y1="21.9623" x2="26.9999" y2="22.6266" gradientUnits="userSpaceOnUse">
<stop stop-color="#CBFF00"/>
<stop offset="1" stop-color="#88E428"/>
</linearGradient>
<linearGradient id="paint4_linear_556_87" x1="26.7202" y1="17.687" x2="26.8387" y2="18.8342" gradientUnits="userSpaceOnUse">
<stop stop-color="#CBFF00"/>
<stop offset="1" stop-color="#CBFF01"/>
</linearGradient>
<linearGradient id="paint5_linear_556_87" x1="24.4576" y1="7.33447" x2="20.5571" y2="14.219" gradientUnits="userSpaceOnUse">
<stop stop-color="#CBFF00"/>
<stop offset="1" stop-color="#2CBF5E"/>
</linearGradient>
<linearGradient id="paint6_linear_556_87" x1="31.4578" y1="10.427" x2="31.4578" y2="19.4241" gradientUnits="userSpaceOnUse">
<stop stop-color="#CBFF00"/>
<stop offset="0.81" stop-color="#4ACB4C"/>
<stop offset="1" stop-color="#2CBF93"/>
</linearGradient>
<linearGradient id="paint7_linear_556_87" x1="19.8831" y1="24.6689" x2="19.8831" y2="39.9219" gradientUnits="userSpaceOnUse">
<stop stop-color="#FFB800"/>
<stop offset="0.536707" stop-color="#C7C945"/>
<stop offset="0.714282" stop-color="#124743"/>
</linearGradient>
<linearGradient id="paint8_linear_556_87" x1="20.8404" y1="3.35916" x2="21.4681" y2="4.25889" gradientUnits="userSpaceOnUse">
<stop stop-color="#C3FC06"/>
<stop offset="1" stop-color="#2CBF5E"/>
</linearGradient>
<linearGradient id="paint9_linear_556_87" x1="9.51777" y1="10.5051" x2="9.51777" y2="19.5022" gradientUnits="userSpaceOnUse">
<stop stop-color="#CBFF00"/>
<stop offset="0.81" stop-color="#4ACB4C"/>
<stop offset="1" stop-color="#2CBF93"/>
</linearGradient>
<linearGradient id="paint10_linear_556_87" x1="19.2551" y1="3.37922" x2="19.7743" y2="5.01501" gradientUnits="userSpaceOnUse">
<stop stop-color="#C3FC06"/>
<stop offset="1" stop-color="#2CBF5E"/>
</linearGradient>
<linearGradient id="paint11_linear_556_87" x1="10.0381" y1="25.1262" x2="9.49328" y2="32.4503" gradientUnits="userSpaceOnUse">
<stop stop-color="#CBFF00"/>
<stop offset="0.625" stop-color="#68D73B"/>
<stop offset="1" stop-color="#2CA5BF"/>
</linearGradient>
<linearGradient id="paint12_linear_556_87" x1="8.06996" y1="25.8974" x2="8.32544" y2="27.2436" gradientUnits="userSpaceOnUse">
<stop stop-color="#CBFF00"/>
<stop offset="1" stop-color="#7ADE31"/>
</linearGradient>
<linearGradient id="paint13_linear_556_87" x1="12.5039" y1="25.0413" x2="13.3992" y2="24.004" gradientUnits="userSpaceOnUse">
<stop stop-color="#CBFF00"/>
<stop offset="1" stop-color="#2EC05E"/>
</linearGradient>
<linearGradient id="paint14_linear_556_87" x1="12.2598" y1="22.5499" x2="12.47" y2="21.5996" gradientUnits="userSpaceOnUse">
<stop stop-color="#CBFF00"/>
<stop offset="1" stop-color="#2EC05E"/>
</linearGradient>
<linearGradient id="paint15_linear_556_87" x1="20" y1="0" x2="20" y2="36.965" gradientUnits="userSpaceOnUse">
<stop stop-color="#CBFF00"/>
<stop offset="0.675" stop-color="#5CD341"/>
<stop offset="1" stop-color="#95773C"/>
</linearGradient>
<linearGradient id="paint16_linear_556_87" x1="19.9223" y1="15.7979" x2="19.9223" y2="23.58" gradientUnits="userSpaceOnUse">
<stop stop-color="#FF9900"/>
<stop offset="1" stop-color="#FFF500"/>
</linearGradient>
<linearGradient id="paint17_linear_556_87" x1="17.6925" y1="5.02915" x2="17.4983" y2="7.24986" gradientUnits="userSpaceOnUse">
<stop stop-color="#C3FC06"/>
<stop offset="1" stop-color="#2CBF5E"/>
</linearGradient>
<linearGradient id="paint18_linear_556_87" x1="10.7268" y1="14.9805" x2="10.606" y2="17.2527" gradientUnits="userSpaceOnUse">
<stop stop-color="#84E32B"/>
<stop offset="1" stop-color="#2CBF5E"/>
</linearGradient>
<linearGradient id="paint19_linear_556_87" x1="12.6462" y1="12.1054" x2="13.8005" y2="13.611" gradientUnits="userSpaceOnUse">
<stop stop-color="#CBFF00"/>
<stop offset="1" stop-color="#2CBF5E"/>
</linearGradient>
<linearGradient id="paint20_linear_556_87" x1="12.5951" y1="8.16665" x2="14.2058" y2="9.16913" gradientUnits="userSpaceOnUse">
<stop stop-color="#CBFF00"/>
<stop offset="1" stop-color="#2CBF5E"/>
</linearGradient>
<linearGradient id="paint21_linear_556_87" x1="21.0624" y1="8.41739" x2="22.3235" y2="8.58965" gradientUnits="userSpaceOnUse">
<stop stop-color="#CBFF00"/>
<stop offset="0.745" stop-color="#9BEC1D"/>
<stop offset="1" stop-color="#8BE628"/>
</linearGradient>
<linearGradient id="paint22_linear_556_87" x1="24.4561" y1="6.74612" x2="23.527" y2="6.74612" gradientUnits="userSpaceOnUse">
<stop stop-color="#CBFF00"/>
<stop offset="0.745" stop-color="#9BEC1D"/>
<stop offset="1" stop-color="#8BE628"/>
</linearGradient>
<linearGradient id="paint23_linear_556_87" x1="21.8256" y1="12.4451" x2="22.0448" y2="11.0925" gradientUnits="userSpaceOnUse">
<stop stop-color="#CBFF00"/>
<stop offset="1" stop-color="#65D63D"/>
</linearGradient>
<linearGradient id="paint24_linear_556_87" x1="17.1228" y1="11.631" x2="18.493" y2="11.631" gradientUnits="userSpaceOnUse">
<stop stop-color="#CBFF00"/>
<stop offset="1" stop-color="#43C951"/>
</linearGradient>
<linearGradient id="paint25_linear_556_87" x1="34.9513" y1="19.7632" x2="34.8434" y2="18.9888" gradientUnits="userSpaceOnUse">
<stop stop-color="#CBFF00"/>
<stop offset="0.885" stop-color="#3DC656"/>
<stop offset="1" stop-color="#2DC05F"/>
<stop offset="1" stop-color="#2D94C0"/>
</linearGradient>
<linearGradient id="paint26_linear_556_87" x1="33.7876" y1="21.4137" x2="33.9396" y2="20.6468" gradientUnits="userSpaceOnUse">
<stop stop-color="#CBFF00"/>
<stop offset="0.885" stop-color="#3DC656"/>
<stop offset="1" stop-color="#2DC05F"/>
<stop offset="1" stop-color="#2D94C0"/>
</linearGradient>
<linearGradient id="paint27_linear_556_87" x1="29.163" y1="13.0408" x2="29.0458" y2="13.7507" gradientUnits="userSpaceOnUse">
<stop stop-color="#CBFF00"/>
<stop offset="1" stop-color="#2DC05F"/>
</linearGradient>
<linearGradient id="paint28_linear_556_87" x1="28.4182" y1="10.4033" x2="28.0069" y2="10.9937" gradientUnits="userSpaceOnUse">
<stop stop-color="#CBFF00"/>
<stop offset="1" stop-color="#2DC05F"/>
</linearGradient>
<linearGradient id="paint29_linear_556_87" x1="29.1077" y1="7.66791" x2="28.5111" y2="8.07009" gradientUnits="userSpaceOnUse">
<stop stop-color="#CBFF00"/>
<stop offset="1" stop-color="#2DC05F"/>
</linearGradient>
<linearGradient id="paint30_linear_556_87" x1="5.82315" y1="19.8674" x2="6.14366" y2="19.0029" gradientUnits="userSpaceOnUse">
<stop stop-color="#CBFF00"/>
<stop offset="0.885" stop-color="#3DC656"/>
<stop offset="1" stop-color="#2DC05F"/>
<stop offset="1" stop-color="#2D94C0"/>
</linearGradient>
<linearGradient id="paint31_linear_556_87" x1="7.29709" y1="21.4997" x2="7.32485" y2="20.5781" gradientUnits="userSpaceOnUse">
<stop stop-color="#CBFF00"/>
<stop offset="0.885" stop-color="#3DC656"/>
<stop offset="1" stop-color="#2DC05F"/>
<stop offset="1" stop-color="#2D94C0"/>
</linearGradient>
</defs>
</svg>
