<?xml version="1.0" encoding="UTF-8" standalone="no"?>
<!-- Created with Inkscape (http://www.inkscape.org/) -->

<svg
   width="16mm"
   height="16mm"
   viewBox="0 0 16 16"
   version="1.1"
   id="svg5"
   fill="white"
   inkscape:version="1.1.2 (0a00cf5339, 2022-02-04)"
   sodipodi:docname="mountain_stream.svg"
   xmlns:inkscape="http://www.inkscape.org/namespaces/inkscape"
   xmlns:sodipodi="http://sodipodi.sourceforge.net/DTD/sodipodi-0.dtd"
   xmlns="http://www.w3.org/2000/svg"
   xmlns:svg="http://www.w3.org/2000/svg">
  <sodipodi:namedview
     id="namedview7"
     pagecolor="#ffffff"
     bordercolor="#111111"
     borderopacity="1"
     inkscape:pageshadow="0"
     inkscape:pageopacity="0"
     inkscape:pagecheckerboard="1"
     inkscape:document-units="mm"
     showgrid="false"
     inkscape:zoom="3.6203867"
     inkscape:cx="52.756795"
     inkscape:cy="97.36529"
     inkscape:window-width="1920"
     inkscape:window-height="968"
     inkscape:window-x="0"
     inkscape:window-y="1107"
     inkscape:window-maximized="1"
     inkscape:current-layer="layer1" />
  <defs
     id="defs2" />
  <g
     inkscape:label="Layer 1"
     inkscape:groupmode="layer"
     id="layer1">
    <path
       style="stroke-width:0.100178"
       d="m 6.4814549,15.102392 c -0.3446,-0.12757 -0.41254,-0.24603 -0.26879,-0.46862 0.0751,-0.11619 0.16523,-0.35845 0.20042,-0.53835 0.0591,-0.30238 0.013,-0.37835 -0.61003,-1.00542 -0.3707,-0.37308 -0.83178,-0.895097 -1.02462,-1.160039 -0.19285,-0.264942 -0.43312,-0.571196 -0.53394,-0.680564 -0.10082,-0.109368 -0.23117,-0.341762 -0.28967,-0.51643 -0.0585,-0.174669 -0.17887,-0.401327 -0.26749,-0.503687 -0.12022,-0.138857 -0.16042,-0.3932008 -0.15835,-1.0017798 0.003,-0.753442 0.0274,-0.851151 0.32539,-1.280728 0.17744,-0.255781 0.40033,-0.494876 0.49531,-0.531323 0.4079,-0.156525 -0.18538,-0.25291 -1.57481,-0.255844 -0.79892,-0.0017 -1.51219,-0.04086 -1.58505,-0.08706 -0.0729,-0.04619 -0.16917,-0.246741 -0.21404,-0.44566 -0.0942,-0.41777 0.0112,-0.610358 0.4164,-0.760615 0.14864,-0.05512 0.34874,-0.226199 0.44467,-0.380178 0.0959,-0.153978 0.38295,-0.482821 0.63783,-0.730761 0.25487,-0.247941 0.49289,-0.529691 0.52892,-0.626112 0.036,-0.09642 0.13014,-0.175312 0.20913,-0.175312 0.079,0 0.19075,-0.13524 0.24837,-0.300534 0.0576,-0.165293 0.16948,-0.300534 0.24856,-0.300534 0.0791,0 0.16825,-0.0935 0.19814,-0.20779 0.0299,-0.114285 0.14784,-0.232243 0.26213,-0.262129 0.11428,-0.02989 0.20779,-0.115114 0.20779,-0.189397 0,-0.413621 0.95919,-0.409584 1.27142,0.0054 0.13987,0.185883 0.24394,0.228099 0.45665,0.185235 0.17286,-0.03484 0.27548,-0.120019 0.27548,-0.228667 0,-0.09523 0.0964,-0.259028 0.21419,-0.363989 0.1178,-0.104961 0.27618,-0.337348 0.35196,-0.516416 0.0758,-0.179069 0.2048,-0.325579 0.28671,-0.325579 0.0819,0 0.14892,-0.0644 0.14892,-0.143111 0,-0.258472 0.30547,-0.45795703 0.70125,-0.45795703 0.36092,0 0.70125,0.19573603 0.70125,0.40331403 0,0.04866 0.1127,0.201169 0.25044,0.338914 0.13775,0.137745 0.25045,0.359936 0.25045,0.49376 0,0.161966 0.0695,0.261481 0.20779,0.297652 0.11428,0.02989 0.23237,0.148338 0.26241,0.263225 0.0885,0.338531 0.5125801,0.381564 0.7674901,0.07789 0.35907,-0.427753 1.26675,-0.448975 1.26675,-0.02962 0,0.07428 0.0935,0.159511 0.2078,0.189397 0.11428,0.02989 0.23185,0.146351 0.26126,0.258811 0.0294,0.11246 0.13876,0.231544 0.24301,0.26463 0.10424,0.03309 0.18954,0.117649 0.18954,0.187917 0,0.07027 0.254,0.39406 0.56446,0.719539 0.31045,0.325479 0.72368,0.785901 0.91828,1.02316 0.19459,0.237259 0.50409,0.494169 0.68776,0.570912 0.289587,0.120997 0.333947,0.186786 0.333947,0.495266 0,0.222164 -0.0752,0.430964 -0.200357,0.556091 -0.18839,0.188387 -0.33393,0.200356 -2.43632,0.200356 -2.23596,0 -2.23596,0 -2.5725801,0.300534 -0.18514,0.165293 -0.39496,0.300534 -0.46627,0.300534 -0.15514,0 -0.43533,0.509591 -0.43533,0.791735 0,0.110339 0.0563,0.324151 0.12508,0.475138 0.12896,0.283031 0.74687,0.937042 0.8853201,0.937042 0.0429,0 0.10525,0.08568 0.13849,0.1903968 0.0332,0.104718 0.1696,0.217797 0.30303,0.251285 0.13343,0.03349 0.36379,0.173211 0.51192,0.310493 0.14813,0.137283 0.30691,0.249604 0.35284,0.249604 0.16376,0 2.29159,2.203165 2.2959,2.377195 0.002,0.0975 0.0685,0.35732 0.14681,0.57728 0.12666,0.35572 0.12388,0.44193 -0.0251,0.77968 -0.18598,0.42152 -0.55395,0.59243 -0.77744,0.36109 -0.0734,-0.076 -0.2477,-0.48189 -0.38727,-0.90193 -0.24969,-0.75146 -0.65086,-1.30461 -1.04146,-1.436 -0.0956,-0.0322 -0.41661,-0.282952 -0.71324,-0.557284 -0.29663,-0.274331 -0.58807,-0.498785 -0.64763,-0.498785 -0.0596,0 -0.20005,-0.09286 -0.3121801,-0.206349 -0.11214,-0.113492 -0.4425,-0.38203 -0.73413,-0.596752 -0.61463,-0.45253 -1.32305,-1.3454828 -1.32305,-1.6676948 0,-0.122201 -0.0451,-0.250045 -0.10017,-0.284098 -0.14637,-0.09046 -0.12239,-0.485485 0.0495,-0.815017 0.0823,-0.157817 0.14993,-0.363591 0.15027,-0.457274 3.4e-4,-0.09368 0.0782,-0.213745 0.17299,-0.266802 0.14187,-0.07939 0.10628,-0.108869 -0.20102,-0.166519 -0.48829,-0.0916 -1.24148,0.02466 -1.30959,0.202142 -0.0295,0.07692 -0.24764,0.197704 -0.48472,0.268414 -0.38177,0.113863 -0.60059,0.289266 -1.23884,0.993015 -0.18998,0.209477 -0.18912,1.03149 0.001,1.189479 0.0798,0.06625 0.19919,0.2859018 0.26525,0.4881108 0.0661,0.20221 0.21487,0.463566 0.3307,0.580792 0.4287,0.433869 0.76158,0.84501 0.76158,0.94064 0,0.05415 0.069,0.09845 0.15341,0.09845 0.0844,0 0.18304,0.07889 0.21925,0.175311 0.0362,0.09642 0.18131,0.295591 0.32243,0.442599 0.14113,0.147012 0.34302,0.360802 0.44865,0.475102 0.12175,0.13174 0.20828,0.40354 0.23639,0.74251 0.0388,0.46784 0.0118,0.57128 -0.21554,0.82722 -0.14293,0.16088 -0.30744,0.34886 -0.36556,0.41773 -0.10941,0.12963 -0.33826,0.15019 -0.59868,0.0538 z m -2.24685,-9.3882098 c 0.0787,-0.07871 0.14312,-0.193461 0.14312,-0.254998 0,-0.06154 0.10702,-0.218914 0.23783,-0.349725 0.13081,-0.13081 0.28504,-0.373241 0.34273,-0.538736 0.18003,-0.516435 -0.0873,-0.433961 -0.68074,0.210032 -0.30304,0.32884 -0.65036,0.705586 -0.77183,0.837215 -0.22084,0.239323 -0.22084,0.239323 0.18247,0.239323 0.22182,0 0.46771,-0.0644 0.54642,-0.143111 z m 6.1537901,0.09758 c 0,-0.02505 -0.10143,-0.158145 -0.2254,-0.295778 -0.4998101,-0.554895 -0.7763801,-0.946738 -0.7763801,-1.099972 0,-0.08886 -0.0687,-0.161562 -0.15274,-0.161562 -0.084,0 -0.19857,-0.120523 -0.25458,-0.26783 -0.056,-0.147306 -0.21267,-0.370554 -0.34814,-0.496106 -0.13547,-0.125552 -0.24632,-0.288166 -0.24632,-0.361364 0,-0.0732 -0.13524,-0.184135 -0.30053,-0.246527 -0.26752,-0.100978 -0.30053,-0.09277 -0.30053,0.07473 0,0.103492 -0.13524,0.342198 -0.30054,0.530457 -0.16529,0.188259 -0.30053,0.394103 -0.30053,0.457431 0,0.06333 -0.0693,0.141729 -0.15397,0.174226 -0.0847,0.0325 -0.22109,0.188862 -0.30311,0.347479 -0.082,0.158616 -0.21058,0.288394 -0.28568,0.288394 -0.0767,0 -0.1653,0.153274 -0.20209,0.349405 -0.0365,0.194767 -0.15232,0.395841 -0.2616,0.454326 -0.46808,0.250508 -0.13077,0.298226 2.10805,0.298226 1.26725,0 2.3040901,-0.02049 2.3040901,-0.04554 z m 2.32914,-0.122205 c -0.12397,-0.08648 -0.2254,-0.196813 -0.2254,-0.24519 0,-0.04838 -0.26257,-0.350533 -0.5835,-0.671457 -0.43607,-0.436077 -0.63055,-0.566993 -0.76973,-0.518171 -0.12839,0.04504 -0.1494,0.08809 -0.0677,0.138609 0.0652,0.0403 0.11858,0.143561 0.11858,0.229457 0,0.08589 0.13524,0.310204 0.30053,0.498463 0.16529,0.188259 0.30053,0.430881 0.30053,0.539159 0,0.173492 0.0684,0.196246 0.57603,0.191616 0.5529,-0.005 0.56697,-0.01157 0.35062,-0.162486 z"
       id="path90574" />
  </g>
</svg>
