<svg width="300" height="300" viewBox="0 0 300 300" fill="none" xmlns="http://www.w3.org/2000/svg">
<path fill-rule="evenodd" clip-rule="evenodd" d="M121 36.8889C110.507 36.8889 102 45.3457 102 55.7778V103H83V55.7778C83 34.9137 100.013 18 121 18H165.983C176.228 18 186.039 22.1126 193.191 29.4051L205.208 41.6581C212.127 48.7134 216 58.1771 216 68.0308V103H197V68.0308C197 63.1039 195.064 58.3721 191.604 54.8445L179.587 42.5914C176.011 38.9452 171.106 36.8889 165.983 36.8889H121ZM115.3 73.9402C115.3 68.7242 119.553 64.4957 124.8 64.4957H168.5C173.747 64.4957 178 68.7242 178 73.9402C178 79.1562 173.747 83.3846 168.5 83.3846H124.8C119.553 83.3846 115.3 79.1562 115.3 73.9402Z" fill="black"/>
<path fill-rule="evenodd" clip-rule="evenodd" d="M74.2273 121.9C71.7318 121.9 69.3386 122.896 67.574 124.668C65.8095 126.44 64.8182 128.844 64.8182 131.35V188.05C64.8182 210.607 73.74 232.239 89.6209 248.189C105.502 264.139 127.041 273.1 149.5 273.1C196.27 273.1 234.182 235.023 234.182 188.05V131.35C234.182 128.844 233.191 126.44 231.426 124.668C229.661 122.896 227.268 121.9 224.773 121.9H74.2273ZM54.2676 111.304C59.5612 105.987 66.7409 103 74.2273 103H224.773C232.259 103 239.439 105.987 244.732 111.304C250.026 116.62 253 123.831 253 131.35V188.05C253 245.461 206.663 292 149.5 292C122.05 292 95.7245 281.048 76.3144 261.554C56.9044 242.059 46 215.619 46 188.05V131.35C46 123.831 48.9739 116.62 54.2676 111.304Z" fill="black"/>
<path fill-rule="evenodd" clip-rule="evenodd" d="M95.9077 152.602C99.6659 149.021 105.627 149.153 109.222 152.897L134.712 179.445C141.907 186.938 153.838 187.196 161.353 180.022L190.068 152.608C193.823 149.023 199.784 149.15 203.382 152.89C206.98 156.631 206.854 162.569 203.099 166.154L174.384 193.568C159.354 207.916 135.491 207.399 121.103 192.413L95.6118 165.865C92.017 162.121 92.1494 156.183 95.9077 152.602Z" fill="black"/>
</svg>
