<?xml version="1.0" encoding="UTF-8" standalone="no"?>
<!-- Created with Inkscape (http://www.inkscape.org/) -->

<svg
   width="123mm"
   height="130mm"
   viewBox="0 0 123 130"
   version="1.1"
   id="svg5"
   inkscape:version="1.1.2 (0a00cf5339, 2022-02-04)"
   sodipodi:docname="raindrops.svg"
   xmlns:inkscape="http://www.inkscape.org/namespaces/inkscape"
   xmlns:sodipodi="http://sodipodi.sourceforge.net/DTD/sodipodi-0.dtd"
   xmlns="http://www.w3.org/2000/svg"
   xmlns:svg="http://www.w3.org/2000/svg">
  <sodipodi:namedview
     id="namedview7"
     pagecolor="#ffffff"
     bordercolor="#111111"
     borderopacity="1"
     inkscape:pageshadow="0"
     inkscape:pageopacity="0"
     inkscape:pagecheckerboard="1"
     inkscape:document-units="mm"
     showgrid="false"
     inkscape:zoom="0.70377385"
     inkscape:cx="415.61647"
     inkscape:cy="267.84172"
     inkscape:window-width="1920"
     inkscape:window-height="968"
     inkscape:window-x="0"
     inkscape:window-y="1107"
     inkscape:window-maximized="1"
     inkscape:current-layer="layer1" />
  <defs
     id="defs2" />
  <g
     inkscape:label="Layer 1"
     inkscape:groupmode="layer"
     id="layer1">
    <path
       style="fill:#000000;stroke-width:0.264583"
       d="m 54.067403,127.65035 c 0,-0.11892 -0.86321,-0.42145 -1.91823,-0.6723 -5.55856,-1.32164 -11.616225,-5.37735 -15.358296,-10.28263 -6.741197,-8.83669 -7.80519,-20.394874 -2.800104,-30.417677 1.534083,-3.07204 20.56955,-35.974543 21.22523,-36.687473 1.7013,-1.84984 4.93127,-2.30165 7.15172,-1.00038 0.77409,0.45365 1.57607,1.24281 2.13424,2.10013 0.49178,0.75537 4.733,8.0409 9.42491,16.19006 4.691921,8.149173 8.927961,15.441623 9.413421,16.205443 3.36853,5.30001 4.86194,10.315182 4.85421,16.301403 -0.0142,10.997044 -6.01964,20.612964 -16.011631,25.637864 -1.91531,0.96319 -5.85514,2.3126 -6.75205,2.3126 -0.28353,0 -0.51551,0.11906 -0.51551,0.26458 0,0.16779 -1.98437,0.26458 -5.42395,0.26458 -2.98318,0 -5.42396,-0.0973 -5.42396,-0.2162 z M 98.385114,57.45052 c -6.57992,-0.8331 -12.38837,-4.88968 -15.4462,-10.78753 -1.82413,-3.5183 -2.28194,-5.44766 -2.26581,-9.54853 0.013,-3.30575 0.0769,-3.75494 0.85755,-6.02887 0.85762,-2.49814 1.46972,-3.62829 9.55991,-17.65134 5.1854,-8.9880602 5.54658,-9.5262502 6.79167,-10.1199902 0.49486,-0.23598 0.89975,-0.52607 0.89975,-0.64464 0,-0.11857 0.89297,-0.21558 1.984376,-0.21558 1.14652,0 1.98437,0.11171 1.98437,0.26458 0,0.14553 0.17825,0.26459 0.39611,0.26459 1.10931,0 2.60287,2.0849 7.17035,10.0092602 2.57245,4.46308 5.6734,9.80626 6.891,11.87372 1.34951,2.29145 2.54429,4.71894 3.06028,6.21771 0.79703,2.31509 0.84605,2.67502 0.83936,6.16285 -0.006,3.3157 -0.0838,3.94002 -0.7386,5.95312 -2.59381,7.97466 -9.02458,13.26832 -17.34698,14.27964 -1.2331,0.14985 -2.3642,0.25739 -2.51354,0.23898 -0.14933,-0.0184 -1.104956,-0.139 -2.123596,-0.26797 z M 14.274368,51.24481 C 8.5160235,49.8515 3.8367745,45.15415 2.3249365,39.24916 c -0.607289,-2.37197 -0.423367,-6.6675 0.385948,-9.01387 0.326258,-0.94588 2.876896,-5.69256 5.668086,-10.54816 4.0867795,-7.10944 5.2760165,-8.97704 6.1078565,-9.591931 2.733157,-2.0203195 6.255025,-1.5195395 8.255911,1.173911 0.986499,1.32796 8.543472,14.30275 9.973481,17.12376 0.718357,1.41712 1.131681,2.71095 1.428605,4.47191 0.377684,2.23996 0.378835,2.7163 0.01198,4.96116 -0.607877,3.71965 -2.013606,6.46675 -4.63564,9.05907 -2.346187,2.3196 -4.380317,3.49642 -7.361447,4.25886 -2.402109,0.61436 -5.594574,0.65523 -7.885341,0.10094 z"
       id="path836" />
  </g>
</svg>
